<?xml version="1.0" standalone="no"?>
<!DOCTYPE svg PUBLIC "-//W3C//DTD SVG 20010904//EN"
 "http://www.w3.org/TR/2001/REC-SVG-20010904/DTD/svg10.dtd">
<svg version="1.0" xmlns="http://www.w3.org/2000/svg"
 width="224.000000pt" height="224.000000pt" viewBox="0 0 224.000000 224.000000"
 preserveAspectRatio="xMidYMid meet">
<metadata>
Created by potrace 1.12, written by Peter Selinger 2001-2015
</metadata>
<g transform="translate(0.000000,224.000000) scale(0.100000,-0.100000)"
fill="#000000" stroke="none">
<path d="M974 1885 c-108 -224 -139 -296 -132 -309 6 -10 8 -20 5 -22 -3 -3
-70 -10 -149 -16 -78 -6 -145 -12 -147 -14 -2 -2 76 -207 174 -456 97 -249
224 -576 283 -725 58 -150 109 -270 113 -265 4 4 85 205 179 447 206 526 390
999 390 1001 0 1 -48 5 -107 8 -164 10 -207 16 -194 29 6 6 11 16 11 23 0 13
-267 574 -278 585 -4 4 -71 -125 -148 -286z m226 -130 c43 -91 77 -172 73
-180 -3 -8 -15 -15 -27 -15 -19 0 -31 -17 -69 -99 -25 -55 -50 -102 -55 -105
-5 -3 -32 42 -60 99 -41 83 -56 105 -72 105 -11 0 -23 7 -27 15 -4 13 144 345
155 345 1 0 38 -74 82 -165z m-170 -497 l89 -183 88 184 88 184 120 -7 c65 -4
120 -8 122 -10 2 -1 -9 -32 -23 -67 -29 -70 -154 -392 -295 -759 -50 -129 -94
-239 -99 -244 -4 -4 -11 3 -15 15 -7 22 -248 648 -361 937 -24 62 -44 114 -44
117 0 5 70 11 163 13 l78 2 89 -182z"/>
</g>
</svg>
